<svg id="Layer_1" height="512" fill="#203F4C" viewBox="0 0 500.009 500.009" width="512" xmlns="http://www.w3.org/2000/svg"><path d="m470.924 144.759 17.388-17.388c15.596-15.595 15.596-40.972 0-56.568l-59.105-59.106c-15.598-15.594-40.973-15.595-56.568.001l-17.388 17.388-15.971-15.972c-15.596-15.594-40.973-15.595-56.568.001l-35.276 35.276c-15.632 15.63-15.635 40.936 0 56.569l35.26 35.26-142.476 142.475-35.26-35.26c-15.628-15.63-40.936-15.636-56.568 0l-35.278 35.276c-15.594 15.596-15.594 40.973.001 56.569l15.97 15.97-17.388 17.388c-15.596 15.595-15.596 40.972 0 56.568l59.105 59.106c15.6 15.596 40.973 15.595 56.568-.001l17.388-17.388 15.971 15.971c15.595 15.593 40.972 15.594 56.568 0l35.276-35.277c15.632-15.63 15.635-40.936 0-56.569l-35.26-35.26 142.475-142.475 35.26 35.26c15.628 15.63 40.936 15.636 56.568 0l35.277-35.276c15.594-15.596 15.595-40.973 0-56.568zm-75.659-110.436c3.119-3.119 8.195-3.119 11.314 0l59.104 59.105c3.119 3.119 3.12 8.195.001 11.314l-17.388 17.388-70.419-70.42zm-290.521 431.362c-3.119 3.119-8.195 3.119-11.314 0l-59.104-59.105c-3.119-3.119-3.12-8.195-.001-11.314l17.388-17.388 70.419 70.42zm125.203-36.695-35.276 35.276c-3.119 3.119-8.195 3.118-11.314.001-32.028-32.027-115.041-115.041-147.614-147.614-3.119-3.119-3.119-8.195-.001-11.314 38.291-38.289 36.427-37.619 40.935-37.619 5.011 0-5.823-9.138 153.271 149.956 3.119 3.119 3.126 8.187-.001 11.314zm-35.26-91.829-31.84-31.84 142.475-142.475 31.84 31.84zm269.58-142.491c-38.291 38.289-36.427 37.619-40.935 37.619-4.566 0-2.109 1.205-52.23-48.916-108.859-108.859-103.383-101.962-103.383-106.697 0-4.466-.798-2.516 37.619-40.934 1.56-1.56 3.608-2.34 5.657-2.34 4.681 0-8.319-11.636 153.271 149.953 3.119 3.12 3.119 8.196.001 11.315z"/></svg>